<svg width="18" height="20" viewBox="0 0 18 20" fill="none" xmlns="http://www.w3.org/2000/svg">
<path d="M17.304 17.9241L16.6204 5.52752H13.2051V4.52671C13.2051 2.03057 11.1746 0 8.67851 0C6.18246 0 4.15189 2.03067 4.15189 4.52671V5.52752H0.588835L0.00069109 17.9777L9.57051e-05 17.9993C-0.00473242 18.4473 0.173319 18.887 0.48833 19.2052C0.803439 19.5238 1.24122 19.7066 1.68945 19.7066H15.6172C16.0791 19.7066 16.5265 19.5142 16.8443 19.1785C17.1619 18.8428 17.3295 18.3856 17.304 17.9241ZM5.33252 4.52671C5.33252 2.68168 6.83347 1.18062 8.67851 1.18062C10.5234 1.18062 12.0245 2.68168 12.0245 4.52671V5.52752H5.33242V4.52671H5.33252ZM15.9867 18.3668C15.8908 18.4679 15.7562 18.5259 15.6171 18.5259H1.68935C1.55436 18.5259 1.42262 18.4709 1.32753 18.3748C1.23472 18.2812 1.18141 18.1524 1.18053 18.0203L1.71487 6.70814H4.1517V8.20319C4.1517 8.52923 4.41596 8.7935 4.74201 8.7935C5.06805 8.7935 5.33232 8.52923 5.33232 8.20319V6.70814H12.0244V8.20319C12.0244 8.52923 12.2887 8.7935 12.6147 8.7935C12.9408 8.7935 13.2049 8.52923 13.2049 8.20319V6.70814H15.5028L16.1249 17.9892C16.1328 18.1281 16.0824 18.2658 15.9867 18.3668Z" fill="black"/>
</svg>
