<svg width="14" height="21" viewBox="0 0 14 21" fill="none" xmlns="http://www.w3.org/2000/svg">
<rect width="13.2861" height="13.2861" fill="black"/>
<path d="M6.75545 9V4.224L5.74745 4.648V3.944L7.04345 3.4H7.54745V9H6.75545ZM6.80967 20.088C6.34034 20.088 5.92967 19.968 5.57767 19.728C5.22567 19.4827 4.94834 19.144 4.74567 18.712C4.54834 18.2747 4.44967 17.7707 4.44967 17.2C4.44967 16.6293 4.54834 16.128 4.74567 15.696C4.94834 15.2587 5.22567 14.92 5.57767 14.68C5.92967 14.4347 6.34034 14.312 6.80967 14.312C7.27367 14.312 7.68167 14.4347 8.03367 14.68C8.38567 14.92 8.66034 15.2587 8.85767 15.696C9.06034 16.128 9.16167 16.6293 9.16167 17.2C9.16167 17.7707 9.06034 18.2747 8.85767 18.712C8.66034 19.144 8.38567 19.4827 8.03367 19.728C7.68167 19.968 7.27367 20.088 6.80967 20.088ZM6.80967 19.392C7.12967 19.392 7.40701 19.304 7.64167 19.128C7.87634 18.9467 8.05767 18.6907 8.18567 18.36C8.31367 18.0293 8.37767 17.6427 8.37767 17.2C8.37767 16.752 8.31367 16.3653 8.18567 16.04C8.05767 15.7093 7.87634 15.456 7.64167 15.28C7.40701 15.0987 7.12967 15.008 6.80967 15.008C6.48967 15.008 6.21234 15.0987 5.97767 15.28C5.74301 15.456 5.55901 15.7093 5.42567 16.04C5.29767 16.3653 5.23367 16.752 5.23367 17.2C5.23367 17.6427 5.29767 18.0293 5.42567 18.36C5.55901 18.6907 5.74301 18.9467 5.97767 19.128C6.21234 19.304 6.48967 19.392 6.80967 19.392Z" fill="white"/>
</svg>
